<svg style="display: none;" aria-hidden="true" xmlns="http://www.w3.org/2000/svg" xmlns:xlink="http://www.w3.org/1999/xlink"><symbol viewBox="0 0 24 24" id="svg-facebook"><path d="M15.12 5.32003H17V2.14003C16.0897 2.04538 15.1751 1.99865 14.26 2.00003C11.54 2.00003 9.67999 3.66003 9.67999 6.70003V9.32003H6.60999V12.88H9.67999V22H13.36V12.88H16.42L16.88 9.32003H13.36V7.05003C13.36 6.00003 13.64 5.32003 15.12 5.32003Z"/></symbol><symbol viewBox="0 0 24 24" id="svg-instagram"><path d="M17.34 5.46C17.1027 5.46 16.8707 5.53038 16.6733 5.66224C16.476 5.79409 16.3222 5.98151 16.2313 6.20078C16.1405 6.42005 16.1168 6.66133 16.1631 6.89411C16.2094 7.12689 16.3236 7.34071 16.4915 7.50853C16.6593 7.67635 16.8731 7.79064 17.1059 7.83694C17.3387 7.88324 17.5799 7.85948 17.7992 7.76866C18.0185 7.67783 18.2059 7.52402 18.3378 7.32668C18.4696 7.12935 18.54 6.89734 18.54 6.66C18.54 6.34174 18.4136 6.03652 18.1885 5.81147C17.9635 5.58643 17.6583 5.46 17.34 5.46ZM21.94 7.88C21.9206 7.0503 21.7652 6.2294 21.48 5.45C21.2257 4.78313 20.83 4.17928 20.32 3.68C19.8248 3.16743 19.2196 2.77418 18.55 2.53C17.7727 2.23616 16.9508 2.07721 16.12 2.06C15.06 2 14.72 2 12 2C9.28 2 8.94 2 7.88 2.06C7.04915 2.07721 6.22734 2.23616 5.45 2.53C4.78168 2.77665 4.17693 3.16956 3.68 3.68C3.16743 4.17518 2.77418 4.78044 2.53 5.45C2.23616 6.22734 2.07721 7.04915 2.06 7.88C2 8.94 2 9.28 2 12C2 14.72 2 15.06 2.06 16.12C2.07721 16.9508 2.23616 17.7727 2.53 18.55C2.77418 19.2196 3.16743 19.8248 3.68 20.32C4.17693 20.8304 4.78168 21.2234 5.45 21.47C6.22734 21.7638 7.04915 21.9228 7.88 21.94C8.94 22 9.28 22 12 22C14.72 22 15.06 22 16.12 21.94C16.9508 21.9228 17.7727 21.7638 18.55 21.47C19.2196 21.2258 19.8248 20.8326 20.32 20.32C20.8322 19.8226 21.2283 19.2182 21.48 18.55C21.7652 17.7706 21.9206 16.9497 21.94 16.12C21.94 15.06 22 14.72 22 12C22 9.28 22 8.94 21.94 7.88ZM20.14 16C20.1327 16.6348 20.0178 17.2637 19.8 17.86C19.6403 18.2952 19.3839 18.6884 19.05 19.01C18.7256 19.3405 18.3332 19.5964 17.9 19.76C17.3037 19.9778 16.6748 20.0927 16.04 20.1C15.04 20.15 14.67 20.16 12.04 20.16C9.41 20.16 9.04 20.16 8.04 20.1C7.38089 20.1123 6.72459 20.0109 6.1 19.8C5.68578 19.6281 5.31136 19.3728 5 19.05C4.66809 18.7287 4.41484 18.3352 4.26 17.9C4.01586 17.2952 3.88044 16.6519 3.86 16C3.86 15 3.8 14.63 3.8 12C3.8 9.37 3.8 9 3.86 8C3.86448 7.35106 3.98295 6.70795 4.21 6.1C4.38605 5.67791 4.65627 5.30166 5 5C5.30381 4.65617 5.67929 4.3831 6.1 4.2C6.70955 3.98004 7.352 3.86508 8 3.86C9 3.86 9.37 3.8 12 3.8C14.63 3.8 15 3.8 16 3.86C16.6348 3.86728 17.2637 3.98225 17.86 4.2C18.3144 4.36865 18.7223 4.64285 19.05 5C19.3777 5.30718 19.6338 5.68273 19.8 6.1C20.0223 6.70893 20.1373 7.35178 20.14 8C20.19 9 20.2 9.37 20.2 12C20.2 14.63 20.19 15 20.14 16ZM12 6.87C10.9858 6.87198 9.99496 7.17453 9.15265 7.73942C8.31035 8.30431 7.65438 9.1062 7.26763 10.0438C6.88089 10.9813 6.78072 12.0125 6.97979 13.0069C7.17886 14.0014 7.66824 14.9145 8.38608 15.631C9.10392 16.3474 10.018 16.835 11.0129 17.0321C12.0077 17.2293 13.0387 17.1271 13.9755 16.7385C14.9123 16.35 15.7129 15.6924 16.2761 14.849C16.8394 14.0056 17.14 13.0142 17.14 12C17.1413 11.3251 17.0092 10.6566 16.7512 10.033C16.4933 9.40931 16.1146 8.84281 15.6369 8.36605C15.1592 7.88929 14.5919 7.51168 13.9678 7.25493C13.3436 6.99818 12.6749 6.86736 12 6.87ZM12 15.33C11.3414 15.33 10.6976 15.1347 10.15 14.7688C9.60234 14.4029 9.17552 13.8828 8.92348 13.2743C8.67144 12.6659 8.6055 11.9963 8.73398 11.3503C8.86247 10.7044 9.17963 10.111 9.64533 9.64533C10.111 9.17963 10.7044 8.86247 11.3503 8.73398C11.9963 8.6055 12.6659 8.67144 13.2743 8.92348C13.8828 9.17552 14.4029 9.60234 14.7688 10.15C15.1347 10.6976 15.33 11.3414 15.33 12C15.33 12.4373 15.2439 12.8703 15.0765 13.2743C14.9092 13.6784 14.6639 14.0454 14.3547 14.3547C14.0454 14.6639 13.6784 14.9092 13.2743 15.0765C12.8703 15.2439 12.4373 15.33 12 15.33Z" /></symbol><symbol viewBox="0 0 52 52" fill="none" id="svg-instgram-white"><path d="M37.57 11.8299C37.0558 11.8299 36.5531 11.9824 36.1255 12.2681C35.6979 12.5538 35.3647 12.9599 35.1679 13.4349C34.9711 13.91 34.9196 14.4328 35.0199 14.9372C35.1203 15.4415 35.3679 15.9048 35.7315 16.2684C36.0951 16.632 36.5584 16.8796 37.0628 16.98C37.5671 17.0803 38.0899 17.0288 38.565 16.832C39.0401 16.6352 39.4461 16.302 39.7318 15.8744C40.0175 15.4468 40.17 14.9441 40.17 14.4299C40.17 13.7404 39.8961 13.079 39.4085 12.5914C38.9209 12.1038 38.2595 11.8299 37.57 11.8299ZM47.5367 17.0733C47.4945 15.2756 47.1578 13.497 46.54 11.8083C45.9891 10.3634 45.1316 9.05502 44.0267 7.97325C42.9538 6.86267 41.6424 6.01063 40.1917 5.48159C38.5074 4.84493 36.7268 4.50054 34.9267 4.46325C32.63 4.33325 31.8933 4.33325 26 4.33325C20.1066 4.33325 19.37 4.33325 17.0733 4.46325C15.2731 4.50054 13.4926 4.84493 11.8083 5.48159C10.3603 6.01599 9.05 6.8673 7.97331 7.97325C6.86274 9.04614 6.0107 10.3575 5.48165 11.8083C4.84499 13.4925 4.5006 15.2731 4.46331 17.0733C4.33331 19.3699 4.33331 20.1066 4.33331 25.9999C4.33331 31.8933 4.33331 32.6299 4.46331 34.9266C4.5006 36.7268 4.84499 38.5073 5.48165 40.1916C6.0107 41.6423 6.86274 42.9537 7.97331 44.0266C9.05 45.1325 10.3603 45.9838 11.8083 46.5183C13.4926 47.1549 15.2731 47.4993 17.0733 47.5366C19.37 47.6666 20.1066 47.6666 26 47.6666C31.8933 47.6666 32.63 47.6666 34.9267 47.5366C36.7268 47.4993 38.5074 47.1549 40.1917 46.5183C41.6424 45.9892 42.9538 45.1372 44.0267 44.0266C45.1365 42.9488 45.9947 41.6393 46.54 40.1916C47.1578 38.5029 47.4945 36.7243 47.5367 34.9266C47.5367 32.6299 47.6667 31.8933 47.6667 25.9999C47.6667 20.1066 47.6667 19.3699 47.5367 17.0733ZM43.6367 34.6666C43.6209 36.0419 43.3718 37.4046 42.9 38.6966C42.554 39.6395 41.9984 40.4915 41.275 41.1883C40.5722 41.9044 39.722 42.4589 38.7833 42.8133C37.4913 43.2851 36.1287 43.5341 34.7533 43.5499C32.5867 43.6583 31.785 43.6799 26.0866 43.6799C20.3883 43.6799 19.5866 43.6799 17.42 43.5499C15.9919 43.5767 14.5699 43.3568 13.2166 42.8999C12.3192 42.5274 11.5079 41.9743 10.8333 41.2749C10.1142 40.5789 9.56547 39.7262 9.22998 38.7833C8.701 37.4727 8.40761 36.0791 8.36331 34.6666C8.36331 32.4999 8.23331 31.6983 8.23331 25.9999C8.23331 20.3016 8.23331 19.4999 8.36331 17.3333C8.37303 15.9272 8.62971 14.5338 9.12165 13.2166C9.50308 12.3021 10.0886 11.4868 10.8333 10.8333C11.4916 10.0883 12.3051 9.49663 13.2166 9.09992C14.5373 8.62335 15.9293 8.37426 17.3333 8.36325C19.5 8.36325 20.3016 8.23325 26 8.23325C31.6983 8.23325 32.5 8.23325 34.6667 8.36325C36.042 8.37903 37.4047 8.62812 38.6967 9.09992C39.6813 9.46533 40.565 10.0594 41.275 10.8333C41.985 11.4988 42.5398 12.3125 42.9 13.2166C43.3815 14.5359 43.6308 15.9288 43.6367 17.3333C43.745 19.4999 43.7667 20.3016 43.7667 25.9999C43.7667 31.6983 43.745 32.4999 43.6367 34.6666ZM26 14.8849C23.8026 14.8892 21.6557 15.5447 19.8307 16.7687C18.0057 17.9926 16.5845 19.73 15.7465 21.7614C14.9086 23.7928 14.6916 26.0269 15.1229 28.1816C15.5542 30.3363 16.6145 32.3147 18.1698 33.867C19.7251 35.4193 21.7057 36.4758 23.8612 36.9029C26.0167 37.33 28.2504 37.1087 30.2802 36.2668C32.3099 35.4248 34.0446 34.0002 35.2649 32.1728C36.4853 30.3454 37.1366 28.1973 37.1367 25.9999C37.1395 24.5376 36.8533 23.0892 36.2943 21.738C35.7354 20.3867 34.9149 19.1593 33.8799 18.1264C32.8449 17.0934 31.6159 16.2752 30.2635 15.7189C28.9112 15.1626 27.4622 14.8792 26 14.8849ZM26 33.2149C24.573 33.2149 23.178 32.7918 21.9915 31.999C20.805 31.2062 19.8803 30.0793 19.3342 28.761C18.7881 27.4426 18.6452 25.9919 18.9236 24.5923C19.202 23.1928 19.8892 21.9072 20.8982 20.8981C21.9072 19.8891 23.1928 19.2019 24.5924 18.9236C25.992 18.6452 27.4427 18.788 28.761 19.3341C30.0794 19.8802 31.2062 20.805 31.999 21.9915C32.7918 23.178 33.215 24.5729 33.215 25.9999C33.215 26.9474 33.0284 27.8856 32.6658 28.761C32.3032 29.6363 31.7717 30.4317 31.1018 31.1017C30.4318 31.7717 29.6364 32.3031 28.761 32.6657C27.8857 33.0283 26.9475 33.2149 26 33.2149Z" fill="#fff"/></symbol><symbol viewBox="0 0 47 40" fill="none" id="svg-quote"><path d="M12.9137 22.8571C15.3163 22.8571 17.2183 23.6592 18.6198 25.2632C20.1214 26.7669 20.8722 28.7719 20.8722 31.2782C20.8722 33.985 19.9712 36.1404 18.1693 37.7444C16.4675 39.2481 14.115 40 11.1118 40C7.60809 40 4.85517 38.6466 2.85304 35.9399C0.951012 33.2331 0 29.3734 0 24.3609C0 19.8496 1.00107 15.6892 3.00319 11.8797C5.00533 7.96992 8.00852 4.06015 12.0128 0.150374C12.1129 0.0501247 12.263 0 12.4633 0C12.7636 0 13.0138 0.150374 13.2141 0.451122C13.4143 0.751876 13.4143 1.0025 13.2141 1.203C8.30884 6.21553 5.85623 12.1303 5.85623 18.9474C5.85623 21.7544 6.35676 23.8095 7.35783 25.1128C8.25879 23.609 10.1108 22.8571 12.9137 22.8571ZM39.0415 22.8571C41.4441 22.8571 43.3461 23.6592 44.7476 25.2632C46.2492 26.7669 47 28.7719 47 31.2782C47 33.985 46.099 36.1404 44.2971 37.7444C42.5953 39.2481 40.2428 40 37.2396 40C33.7359 40 30.983 38.6466 28.9808 35.9399C27.0788 33.2331 26.1278 29.3734 26.1278 24.3609C26.1278 19.8496 27.1289 15.6892 29.131 11.8797C31.1331 7.96992 34.1363 4.06015 38.1406 0.150374C38.2407 0.0501247 38.3908 0 38.5911 0C38.8914 0 39.1416 0.150374 39.3419 0.451122C39.5421 0.751876 39.5421 1.0025 39.3419 1.203C34.4366 6.21553 31.984 12.1303 31.984 18.9474C31.984 21.7544 32.4846 23.8095 33.4856 25.1128C34.3866 23.609 36.2386 22.8571 39.0415 22.8571Z" fill="#fff"/></symbol><symbol viewBox="0 0 40 10" fill="none" id="svg-spoon"><path d="M33.5014 9.5C37.0847 9.5 39.9998 7.48129 39.9998 4.99995C39.9998 2.51861 37.0847 0.5 33.5014 0.5C30.112 0.5 27.3219 2.30637 27.0298 4.6018H22.3527V3.6552L-0.000213623 3.6552V6.34446L22.3528 6.34446V5.39798H27.0299C27.3221 7.69352 30.112 9.5 33.5014 9.5ZM21.4896 5.54839L0.863079 5.54839V4.45161H21.4896V5.54839ZM27.866 4.99995C27.866 2.95778 30.3942 1.2964 33.5015 1.2964C36.6088 1.2964 39.137 2.95778 39.137 4.99995C39.137 7.04222 36.6088 8.7037 33.5015 8.7037C30.3942 8.7037 27.866 7.04222 27.866 4.99995Z" fill="#DCCA87"/></symbol><symbol viewBox="0 0 24 29" fill="none" id="svg-triangle"><path d="M24 14.5L0 29L0 0L24 14.5Z" fill="#fff"/></symbol><symbol viewBox="0 0 24 24" id="svg-twitter"><path d="M22.9912 3.95021C22.9913 3.77357 22.9447 3.60007 22.8559 3.44735C22.7671 3.29464 22.6395 3.16817 22.486 3.08084C22.3324 2.9935 22.1585 2.94842 21.9819 2.95017C21.8053 2.95193 21.6323 3.00046 21.4805 3.09083C20.8952 3.43921 20.265 3.70601 19.6075 3.88383C18.6685 3.07806 17.4708 2.63713 16.2335 2.64164C14.8761 2.6432 13.5724 3.17223 12.5977 4.11702C11.623 5.06181 11.0537 6.3484 11.0099 7.70512C8.33384 7.27838 5.90849 5.88164 4.19631 3.78126C4.09315 3.65609 3.9614 3.55757 3.81217 3.494C3.66295 3.43043 3.50062 3.40368 3.33889 3.41601C3.17725 3.42932 3.02128 3.4818 2.88448 3.56892C2.74768 3.65603 2.63416 3.77516 2.55373 3.91601C2.14126 4.63582 1.90436 5.44276 1.86228 6.27131C1.8202 7.09986 1.97412 7.92666 2.31154 8.68456L2.30959 8.68651C2.15794 8.77991 2.03278 8.91066 1.94609 9.06625C1.85941 9.22185 1.81409 9.39708 1.81447 9.57519C1.81263 9.72211 1.82145 9.86898 1.84084 10.0146C1.94298 11.2729 2.50062 12.4507 3.4092 13.3271C3.34756 13.4446 3.30994 13.5731 3.29854 13.7052C3.28714 13.8373 3.30218 13.9704 3.34279 14.0967C3.7389 15.3308 4.58129 16.3727 5.7051 17.0185C4.56334 17.46 3.33052 17.614 2.11525 17.4668C1.89032 17.4386 1.66248 17.4876 1.4691 17.6059C1.27572 17.7242 1.12828 17.9047 1.05097 18.1178C0.973654 18.3309 0.97106 18.5639 1.04361 18.7787C1.11616 18.9935 1.25955 19.1772 1.45025 19.2998C3.54034 20.646 5.97393 21.3617 8.46002 21.3613C11.2793 21.393 14.03 20.4921 16.2843 18.7988C18.5385 17.1054 20.17 14.7145 20.9248 11.998C21.2779 10.8146 21.4582 9.58648 21.46 8.35157C21.46 8.28614 21.46 8.21876 21.459 8.15138C21.9811 7.58831 22.3856 6.92668 22.6487 6.20527C22.9118 5.48387 23.0283 4.7172 22.9912 3.95021ZM19.6846 7.16212C19.5194 7.35746 19.4358 7.60891 19.4512 7.86427C19.461 8.02927 19.46 8.19527 19.46 8.35157C19.4579 9.39511 19.305 10.4329 19.0059 11.4326C18.3894 13.744 17.015 15.7817 15.103 17.2192C13.1909 18.6568 10.8517 19.4111 8.46002 19.3613C7.6009 19.3616 6.74474 19.2606 5.90924 19.0606C6.97465 18.7172 7.97083 18.1879 8.85162 17.4971C9.01385 17.3693 9.13257 17.1945 9.19151 16.9967C9.25044 16.7988 9.2467 16.5875 9.18079 16.3918C9.11489 16.1961 8.99005 16.0257 8.8234 15.9038C8.65675 15.7819 8.45647 15.7145 8.25002 15.7109C7.41885 15.698 6.62515 15.363 6.03615 14.7764C6.18557 14.7481 6.33401 14.7129 6.48147 14.6709C6.69748 14.6094 6.88651 14.477 7.01813 14.295C7.14975 14.1131 7.21629 13.8921 7.20704 13.6677C7.1978 13.4433 7.1133 13.2285 6.96715 13.058C6.82101 12.8874 6.62173 12.7711 6.40139 12.7275C5.91893 12.6323 5.46494 12.427 5.0747 12.1277C4.68447 11.8284 4.36852 11.4432 4.15139 11.002C4.33212 11.0266 4.514 11.0419 4.69631 11.0479C4.91289 11.0511 5.1249 10.9854 5.30169 10.8603C5.47847 10.7351 5.61086 10.5569 5.67971 10.3516C5.74569 10.1443 5.74229 9.92123 5.67004 9.7161C5.59778 9.51096 5.46061 9.33499 5.27932 9.21485C4.83947 8.92182 4.47916 8.52427 4.23068 8.0578C3.98219 7.59134 3.85328 7.07052 3.85549 6.54201C3.85549 6.47561 3.85744 6.4092 3.86135 6.34377C6.10261 8.43402 9.00967 9.66621 12.0703 9.82326C12.2248 9.82934 12.3787 9.80024 12.5203 9.73816C12.6619 9.67607 12.7875 9.58262 12.8877 9.46486C12.9869 9.34596 13.0571 9.20566 13.0929 9.05501C13.1286 8.90437 13.1289 8.74748 13.0937 8.5967C13.0366 8.35806 13.0074 8.11357 13.0068 7.86818C13.0077 7.01271 13.348 6.19254 13.9529 5.58764C14.5578 4.98274 15.378 4.64251 16.2334 4.64161C16.6736 4.64043 17.1092 4.7305 17.5127 4.90615C17.9163 5.0818 18.2791 5.3392 18.5781 5.66212C18.6935 5.7862 18.8386 5.87871 18.9998 5.93085C19.161 5.98299 19.3329 5.99303 19.499 5.96001C19.9098 5.88006 20.3147 5.7724 20.7109 5.63775C20.4407 6.19072 20.0953 6.70369 19.6846 7.16212Z"/></symbol><symbol viewBox="0 0 66 64" fill="none" id="svg-two-spoon"><path d="M57.7797 20.5029C62.3055 15.9334 63.4377 9.64181 60.3037 6.4776C57.1697 3.31339 50.9383 4.45657 46.4125 9.02605C42.1316 13.3482 40.8892 19.2096 43.4194 22.5092L37.512 28.4735L36.3165 27.2664L8.08421 55.7709L11.4808 59.2003L39.7132 30.6956L38.5178 29.4887L44.4251 23.5244C47.6934 26.0791 53.4988 24.825 57.7797 20.5029ZM37.6176 30.7812L11.5657 57.0842L10.1804 55.6856L36.2323 29.3826L37.6176 30.7812ZM44.9784 21.9506C42.3991 19.3465 43.4938 14.004 47.4185 10.0415C51.3431 6.07898 56.6346 4.97369 59.2139 7.57786C61.7934 10.1822 60.6987 15.5248 56.7741 19.4873C52.8494 23.4498 47.5578 24.5549 44.9784 21.9506Z" fill="#fff"/><path d="M20.0731 9.0219C15.5536 4.44614 9.3307 3.30153 6.20105 6.47009C3.07141 9.63864 4.2021 15.9387 8.72167 20.5145C12.9966 24.8426 18.794 26.0987 22.0576 23.5405L27.9567 29.513L26.7628 30.7218L54.9559 59.2654L58.3478 55.8313L30.1545 27.2876L28.9608 28.4962L23.0616 22.5237C25.5885 19.2194 24.3481 13.35 20.0731 9.0219ZM30.2392 29.4063L56.2549 55.7455L54.8715 57.146L28.8558 30.8069L30.2392 29.4063ZM21.5051 21.9643C18.9293 24.5721 13.6452 23.4653 9.726 19.4974C5.80679 15.5294 4.71357 10.1796 7.28929 7.57186C9.86516 4.96397 15.1494 6.07065 19.0686 10.0386C22.9878 14.0065 24.0809 19.3565 21.5051 21.9643Z" fill="#fff"/></symbol><symbol viewBox="0 0 9 14" fill="none" id="svg-yellow-arrow"><path d="M7.98812 6.42383L2.06604 0.990997C1.65045 0.602937 1.02708 0.602937 0.611492 0.990997C0.195907 1.37906 0.195907 1.96115 0.611492 2.34921L5.7024 7.19995L0.611492 12.0507C0.195908 12.4388 0.195908 13.0208 0.611492 13.4089C0.819284 13.6029 1.02708 13.7 1.33877 13.7C1.65045 13.7 1.85825 13.6029 2.06604 13.4089L7.98812 7.97607C8.4037 7.491 8.4037 6.90891 7.98812 6.42383C7.98812 6.52085 7.98812 6.52085 7.98812 6.42383Z" fill="#DCCA87"/></symbol></svg>